<?xml version="1.0" encoding="utf-8" standalone="no"?>
<!DOCTYPE svg PUBLIC "-//W3C//DTD SVG 1.1//EN"
  "http://www.w3.org/Graphics/SVG/1.1/DTD/svg11.dtd">
<!-- Created with matplotlib (http://matplotlib.org/) -->
<svg height="432pt" version="1.1" viewBox="0 0 576 432" width="576pt" xmlns="http://www.w3.org/2000/svg" xmlns:xlink="http://www.w3.org/1999/xlink">
 <defs>
  <style type="text/css">
*{stroke-linecap:butt;stroke-linejoin:round;}
  </style>
 </defs>
 <g id="figure_1">
  <g id="patch_1">
   <path d="M 0 432 
L 576 432 
L 576 0 
L 0 0 
z
" style="fill:#ffffff;"/>
  </g>
  <g id="axes_1">
   <g id="patch_2">
    <path d="M 58.79 375.496 
L 517.21 375.496 
L 517.21 13.32 
L 58.79 13.32 
z
" style="fill:#ffffff;"/>
   </g>
   <g id="matplotlib.axis_1">
    <g id="xtick_1">
     <g id="line2d_1">
      <path clip-path="url(#pcf6c55c31b)" d="M 79.627273 375.496 
L 79.627273 13.32 
" style="fill:none;stroke:#a6a6a6;stroke-linecap:square;stroke-width:0.8;"/>
     </g>
     <g id="line2d_2">
      <defs>
       <path d="M 0 0 
L 0 3.5 
" id="mf8ee8b7a36" style="stroke:#000000;stroke-width:0.8;"/>
      </defs>
      <g>
       <use style="stroke:#000000;stroke-width:0.8;" x="79.627273" xlink:href="#mf8ee8b7a36" y="375.496"/>
      </g>
     </g>
     <g id="text_1">
      <!-- $\mathdefault{10^{-1}}$ -->
      <defs>
       <path d="M 12.40625 8.296875 
L 28.515625 8.296875 
L 28.515625 63.921875 
L 10.984375 60.40625 
L 10.984375 69.390625 
L 28.421875 72.90625 
L 38.28125 72.90625 
L 38.28125 8.296875 
L 54.390625 8.296875 
L 54.390625 0 
L 12.40625 0 
z
" id="DejaVuSans-31"/>
       <path d="M 31.78125 66.40625 
Q 24.171875 66.40625 20.328125 58.90625 
Q 16.5 51.421875 16.5 36.375 
Q 16.5 21.390625 20.328125 13.890625 
Q 24.171875 6.390625 31.78125 6.390625 
Q 39.453125 6.390625 43.28125 13.890625 
Q 47.125 21.390625 47.125 36.375 
Q 47.125 51.421875 43.28125 58.90625 
Q 39.453125 66.40625 31.78125 66.40625 
z
M 31.78125 74.21875 
Q 44.046875 74.21875 50.515625 64.515625 
Q 56.984375 54.828125 56.984375 36.375 
Q 56.984375 17.96875 50.515625 8.265625 
Q 44.046875 -1.421875 31.78125 -1.421875 
Q 19.53125 -1.421875 13.0625 8.265625 
Q 6.59375 17.96875 6.59375 36.375 
Q 6.59375 54.828125 13.0625 64.515625 
Q 19.53125 74.21875 31.78125 74.21875 
z
" id="DejaVuSans-30"/>
       <path d="M 10.59375 35.5 
L 73.1875 35.5 
L 73.1875 27.203125 
L 10.59375 27.203125 
z
" id="DejaVuSans-2212"/>
      </defs>
      <g transform="translate(60.827273 394.6535)scale(0.16 -0.16)">
       <use transform="translate(0 0.684375)" xlink:href="#DejaVuSans-31"/>
       <use transform="translate(63.623047 0.684375)" xlink:href="#DejaVuSans-30"/>
       <use transform="translate(128.203125 38.965625)scale(0.7)" xlink:href="#DejaVuSans-2212"/>
       <use transform="translate(186.855469 38.965625)scale(0.7)" xlink:href="#DejaVuSans-31"/>
      </g>
     </g>
    </g>
    <g id="xtick_2">
     <g id="line2d_3">
      <path clip-path="url(#pcf6c55c31b)" d="M 218.542424 375.496 
L 218.542424 13.32 
" style="fill:none;stroke:#a6a6a6;stroke-linecap:square;stroke-width:0.8;"/>
     </g>
     <g id="line2d_4">
      <g>
       <use style="stroke:#000000;stroke-width:0.8;" x="218.542424" xlink:href="#mf8ee8b7a36" y="375.496"/>
      </g>
     </g>
     <g id="text_2">
      <!-- $\mathdefault{10^{0}}$ -->
      <g transform="translate(204.462424 394.6535)scale(0.16 -0.16)">
       <use transform="translate(0 0.765625)" xlink:href="#DejaVuSans-31"/>
       <use transform="translate(63.623047 0.765625)" xlink:href="#DejaVuSans-30"/>
       <use transform="translate(128.203125 39.046875)scale(0.7)" xlink:href="#DejaVuSans-30"/>
      </g>
     </g>
    </g>
    <g id="xtick_3">
     <g id="line2d_5">
      <path clip-path="url(#pcf6c55c31b)" d="M 357.457576 375.496 
L 357.457576 13.32 
" style="fill:none;stroke:#a6a6a6;stroke-linecap:square;stroke-width:0.8;"/>
     </g>
     <g id="line2d_6">
      <g>
       <use style="stroke:#000000;stroke-width:0.8;" x="357.457576" xlink:href="#mf8ee8b7a36" y="375.496"/>
      </g>
     </g>
     <g id="text_3">
      <!-- $\mathdefault{10^{1}}$ -->
      <g transform="translate(343.377576 394.6535)scale(0.16 -0.16)">
       <use transform="translate(0 0.684375)" xlink:href="#DejaVuSans-31"/>
       <use transform="translate(63.623047 0.684375)" xlink:href="#DejaVuSans-30"/>
       <use transform="translate(128.203125 38.965625)scale(0.7)" xlink:href="#DejaVuSans-31"/>
      </g>
     </g>
    </g>
    <g id="xtick_4">
     <g id="line2d_7">
      <path clip-path="url(#pcf6c55c31b)" d="M 496.372727 375.496 
L 496.372727 13.32 
" style="fill:none;stroke:#a6a6a6;stroke-linecap:square;stroke-width:0.8;"/>
     </g>
     <g id="line2d_8">
      <g>
       <use style="stroke:#000000;stroke-width:0.8;" x="496.372727" xlink:href="#mf8ee8b7a36" y="375.496"/>
      </g>
     </g>
     <g id="text_4">
      <!-- $\mathdefault{10^{2}}$ -->
      <defs>
       <path d="M 19.1875 8.296875 
L 53.609375 8.296875 
L 53.609375 0 
L 7.328125 0 
L 7.328125 8.296875 
Q 12.9375 14.109375 22.625 23.890625 
Q 32.328125 33.6875 34.8125 36.53125 
Q 39.546875 41.84375 41.421875 45.53125 
Q 43.3125 49.21875 43.3125 52.78125 
Q 43.3125 58.59375 39.234375 62.25 
Q 35.15625 65.921875 28.609375 65.921875 
Q 23.96875 65.921875 18.8125 64.3125 
Q 13.671875 62.703125 7.8125 59.421875 
L 7.8125 69.390625 
Q 13.765625 71.78125 18.9375 73 
Q 24.125 74.21875 28.421875 74.21875 
Q 39.75 74.21875 46.484375 68.546875 
Q 53.21875 62.890625 53.21875 53.421875 
Q 53.21875 48.921875 51.53125 44.890625 
Q 49.859375 40.875 45.40625 35.40625 
Q 44.1875 33.984375 37.640625 27.21875 
Q 31.109375 20.453125 19.1875 8.296875 
z
" id="DejaVuSans-32"/>
      </defs>
      <g transform="translate(482.292727 394.6535)scale(0.16 -0.16)">
       <use transform="translate(0 0.765625)" xlink:href="#DejaVuSans-31"/>
       <use transform="translate(63.623047 0.765625)" xlink:href="#DejaVuSans-30"/>
       <use transform="translate(128.203125 39.046875)scale(0.7)" xlink:href="#DejaVuSans-32"/>
      </g>
     </g>
    </g>
    <g id="xtick_5">
     <g id="line2d_9">
      <path clip-path="url(#pcf6c55c31b)" d="M 66.165004 375.496 
L 66.165004 13.32 
" style="fill:none;stroke:#a6a6a6;stroke-linecap:square;stroke-width:0.8;"/>
     </g>
     <g id="line2d_10">
      <defs>
       <path d="M 0 0 
L 0 2 
" id="mb51fba1716" style="stroke:#000000;stroke-width:0.6;"/>
      </defs>
      <g>
       <use style="stroke:#000000;stroke-width:0.6;" x="66.165004" xlink:href="#mb51fba1716" y="375.496"/>
      </g>
     </g>
    </g>
    <g id="xtick_6">
     <g id="line2d_11">
      <path clip-path="url(#pcf6c55c31b)" d="M 73.270864 375.496 
L 73.270864 13.32 
" style="fill:none;stroke:#a6a6a6;stroke-linecap:square;stroke-width:0.8;"/>
     </g>
     <g id="line2d_12">
      <g>
       <use style="stroke:#000000;stroke-width:0.6;" x="73.270864" xlink:href="#mb51fba1716" y="375.496"/>
      </g>
     </g>
    </g>
    <g id="xtick_7">
     <g id="line2d_13">
      <path clip-path="url(#pcf6c55c31b)" d="M 121.4449 375.496 
L 121.4449 13.32 
" style="fill:none;stroke:#a6a6a6;stroke-linecap:square;stroke-width:0.8;"/>
     </g>
     <g id="line2d_14">
      <g>
       <use style="stroke:#000000;stroke-width:0.6;" x="121.4449" xlink:href="#mb51fba1716" y="375.496"/>
      </g>
     </g>
    </g>
    <g id="xtick_8">
     <g id="line2d_15">
      <path clip-path="url(#pcf6c55c31b)" d="M 145.906644 375.496 
L 145.906644 13.32 
" style="fill:none;stroke:#a6a6a6;stroke-linecap:square;stroke-width:0.8;"/>
     </g>
     <g id="line2d_16">
      <g>
       <use style="stroke:#000000;stroke-width:0.6;" x="145.906644" xlink:href="#mb51fba1716" y="375.496"/>
      </g>
     </g>
    </g>
    <g id="xtick_9">
     <g id="line2d_17">
      <path clip-path="url(#pcf6c55c31b)" d="M 163.262528 375.496 
L 163.262528 13.32 
" style="fill:none;stroke:#a6a6a6;stroke-linecap:square;stroke-width:0.8;"/>
     </g>
     <g id="line2d_18">
      <g>
       <use style="stroke:#000000;stroke-width:0.6;" x="163.262528" xlink:href="#mb51fba1716" y="375.496"/>
      </g>
     </g>
    </g>
    <g id="xtick_10">
     <g id="line2d_19">
      <path clip-path="url(#pcf6c55c31b)" d="M 176.724797 375.496 
L 176.724797 13.32 
" style="fill:none;stroke:#a6a6a6;stroke-linecap:square;stroke-width:0.8;"/>
     </g>
     <g id="line2d_20">
      <g>
       <use style="stroke:#000000;stroke-width:0.6;" x="176.724797" xlink:href="#mb51fba1716" y="375.496"/>
      </g>
     </g>
    </g>
    <g id="xtick_11">
     <g id="line2d_21">
      <path clip-path="url(#pcf6c55c31b)" d="M 187.724272 375.496 
L 187.724272 13.32 
" style="fill:none;stroke:#a6a6a6;stroke-linecap:square;stroke-width:0.8;"/>
     </g>
     <g id="line2d_22">
      <g>
       <use style="stroke:#000000;stroke-width:0.6;" x="187.724272" xlink:href="#mb51fba1716" y="375.496"/>
      </g>
     </g>
    </g>
    <g id="xtick_12">
     <g id="line2d_23">
      <path clip-path="url(#pcf6c55c31b)" d="M 197.024195 375.496 
L 197.024195 13.32 
" style="fill:none;stroke:#a6a6a6;stroke-linecap:square;stroke-width:0.8;"/>
     </g>
     <g id="line2d_24">
      <g>
       <use style="stroke:#000000;stroke-width:0.6;" x="197.024195" xlink:href="#mb51fba1716" y="375.496"/>
      </g>
     </g>
    </g>
    <g id="xtick_13">
     <g id="line2d_25">
      <path clip-path="url(#pcf6c55c31b)" d="M 205.080155 375.496 
L 205.080155 13.32 
" style="fill:none;stroke:#a6a6a6;stroke-linecap:square;stroke-width:0.8;"/>
     </g>
     <g id="line2d_26">
      <g>
       <use style="stroke:#000000;stroke-width:0.6;" x="205.080155" xlink:href="#mb51fba1716" y="375.496"/>
      </g>
     </g>
    </g>
    <g id="xtick_14">
     <g id="line2d_27">
      <path clip-path="url(#pcf6c55c31b)" d="M 212.186016 375.496 
L 212.186016 13.32 
" style="fill:none;stroke:#a6a6a6;stroke-linecap:square;stroke-width:0.8;"/>
     </g>
     <g id="line2d_28">
      <g>
       <use style="stroke:#000000;stroke-width:0.6;" x="212.186016" xlink:href="#mb51fba1716" y="375.496"/>
      </g>
     </g>
    </g>
    <g id="xtick_15">
     <g id="line2d_29">
      <path clip-path="url(#pcf6c55c31b)" d="M 260.360052 375.496 
L 260.360052 13.32 
" style="fill:none;stroke:#a6a6a6;stroke-linecap:square;stroke-width:0.8;"/>
     </g>
     <g id="line2d_30">
      <g>
       <use style="stroke:#000000;stroke-width:0.6;" x="260.360052" xlink:href="#mb51fba1716" y="375.496"/>
      </g>
     </g>
    </g>
    <g id="xtick_16">
     <g id="line2d_31">
      <path clip-path="url(#pcf6c55c31b)" d="M 284.821796 375.496 
L 284.821796 13.32 
" style="fill:none;stroke:#a6a6a6;stroke-linecap:square;stroke-width:0.8;"/>
     </g>
     <g id="line2d_32">
      <g>
       <use style="stroke:#000000;stroke-width:0.6;" x="284.821796" xlink:href="#mb51fba1716" y="375.496"/>
      </g>
     </g>
    </g>
    <g id="xtick_17">
     <g id="line2d_33">
      <path clip-path="url(#pcf6c55c31b)" d="M 302.177679 375.496 
L 302.177679 13.32 
" style="fill:none;stroke:#a6a6a6;stroke-linecap:square;stroke-width:0.8;"/>
     </g>
     <g id="line2d_34">
      <g>
       <use style="stroke:#000000;stroke-width:0.6;" x="302.177679" xlink:href="#mb51fba1716" y="375.496"/>
      </g>
     </g>
    </g>
    <g id="xtick_18">
     <g id="line2d_35">
      <path clip-path="url(#pcf6c55c31b)" d="M 315.639948 375.496 
L 315.639948 13.32 
" style="fill:none;stroke:#a6a6a6;stroke-linecap:square;stroke-width:0.8;"/>
     </g>
     <g id="line2d_36">
      <g>
       <use style="stroke:#000000;stroke-width:0.6;" x="315.639948" xlink:href="#mb51fba1716" y="375.496"/>
      </g>
     </g>
    </g>
    <g id="xtick_19">
     <g id="line2d_37">
      <path clip-path="url(#pcf6c55c31b)" d="M 326.639423 375.496 
L 326.639423 13.32 
" style="fill:none;stroke:#a6a6a6;stroke-linecap:square;stroke-width:0.8;"/>
     </g>
     <g id="line2d_38">
      <g>
       <use style="stroke:#000000;stroke-width:0.6;" x="326.639423" xlink:href="#mb51fba1716" y="375.496"/>
      </g>
     </g>
    </g>
    <g id="xtick_20">
     <g id="line2d_39">
      <path clip-path="url(#pcf6c55c31b)" d="M 335.939347 375.496 
L 335.939347 13.32 
" style="fill:none;stroke:#a6a6a6;stroke-linecap:square;stroke-width:0.8;"/>
     </g>
     <g id="line2d_40">
      <g>
       <use style="stroke:#000000;stroke-width:0.6;" x="335.939347" xlink:href="#mb51fba1716" y="375.496"/>
      </g>
     </g>
    </g>
    <g id="xtick_21">
     <g id="line2d_41">
      <path clip-path="url(#pcf6c55c31b)" d="M 343.995307 375.496 
L 343.995307 13.32 
" style="fill:none;stroke:#a6a6a6;stroke-linecap:square;stroke-width:0.8;"/>
     </g>
     <g id="line2d_42">
      <g>
       <use style="stroke:#000000;stroke-width:0.6;" x="343.995307" xlink:href="#mb51fba1716" y="375.496"/>
      </g>
     </g>
    </g>
    <g id="xtick_22">
     <g id="line2d_43">
      <path clip-path="url(#pcf6c55c31b)" d="M 351.101167 375.496 
L 351.101167 13.32 
" style="fill:none;stroke:#a6a6a6;stroke-linecap:square;stroke-width:0.8;"/>
     </g>
     <g id="line2d_44">
      <g>
       <use style="stroke:#000000;stroke-width:0.6;" x="351.101167" xlink:href="#mb51fba1716" y="375.496"/>
      </g>
     </g>
    </g>
    <g id="xtick_23">
     <g id="line2d_45">
      <path clip-path="url(#pcf6c55c31b)" d="M 399.275203 375.496 
L 399.275203 13.32 
" style="fill:none;stroke:#a6a6a6;stroke-linecap:square;stroke-width:0.8;"/>
     </g>
     <g id="line2d_46">
      <g>
       <use style="stroke:#000000;stroke-width:0.6;" x="399.275203" xlink:href="#mb51fba1716" y="375.496"/>
      </g>
     </g>
    </g>
    <g id="xtick_24">
     <g id="line2d_47">
      <path clip-path="url(#pcf6c55c31b)" d="M 423.736947 375.496 
L 423.736947 13.32 
" style="fill:none;stroke:#a6a6a6;stroke-linecap:square;stroke-width:0.8;"/>
     </g>
     <g id="line2d_48">
      <g>
       <use style="stroke:#000000;stroke-width:0.6;" x="423.736947" xlink:href="#mb51fba1716" y="375.496"/>
      </g>
     </g>
    </g>
    <g id="xtick_25">
     <g id="line2d_49">
      <path clip-path="url(#pcf6c55c31b)" d="M 441.092831 375.496 
L 441.092831 13.32 
" style="fill:none;stroke:#a6a6a6;stroke-linecap:square;stroke-width:0.8;"/>
     </g>
     <g id="line2d_50">
      <g>
       <use style="stroke:#000000;stroke-width:0.6;" x="441.092831" xlink:href="#mb51fba1716" y="375.496"/>
      </g>
     </g>
    </g>
    <g id="xtick_26">
     <g id="line2d_51">
      <path clip-path="url(#pcf6c55c31b)" d="M 454.5551 375.496 
L 454.5551 13.32 
" style="fill:none;stroke:#a6a6a6;stroke-linecap:square;stroke-width:0.8;"/>
     </g>
     <g id="line2d_52">
      <g>
       <use style="stroke:#000000;stroke-width:0.6;" x="454.5551" xlink:href="#mb51fba1716" y="375.496"/>
      </g>
     </g>
    </g>
    <g id="xtick_27">
     <g id="line2d_53">
      <path clip-path="url(#pcf6c55c31b)" d="M 465.554575 375.496 
L 465.554575 13.32 
" style="fill:none;stroke:#a6a6a6;stroke-linecap:square;stroke-width:0.8;"/>
     </g>
     <g id="line2d_54">
      <g>
       <use style="stroke:#000000;stroke-width:0.6;" x="465.554575" xlink:href="#mb51fba1716" y="375.496"/>
      </g>
     </g>
    </g>
    <g id="xtick_28">
     <g id="line2d_55">
      <path clip-path="url(#pcf6c55c31b)" d="M 474.854498 375.496 
L 474.854498 13.32 
" style="fill:none;stroke:#a6a6a6;stroke-linecap:square;stroke-width:0.8;"/>
     </g>
     <g id="line2d_56">
      <g>
       <use style="stroke:#000000;stroke-width:0.6;" x="474.854498" xlink:href="#mb51fba1716" y="375.496"/>
      </g>
     </g>
    </g>
    <g id="xtick_29">
     <g id="line2d_57">
      <path clip-path="url(#pcf6c55c31b)" d="M 482.910458 375.496 
L 482.910458 13.32 
" style="fill:none;stroke:#a6a6a6;stroke-linecap:square;stroke-width:0.8;"/>
     </g>
     <g id="line2d_58">
      <g>
       <use style="stroke:#000000;stroke-width:0.6;" x="482.910458" xlink:href="#mb51fba1716" y="375.496"/>
      </g>
     </g>
    </g>
    <g id="xtick_30">
     <g id="line2d_59">
      <path clip-path="url(#pcf6c55c31b)" d="M 490.016319 375.496 
L 490.016319 13.32 
" style="fill:none;stroke:#a6a6a6;stroke-linecap:square;stroke-width:0.8;"/>
     </g>
     <g id="line2d_60">
      <g>
       <use style="stroke:#000000;stroke-width:0.6;" x="490.016319" xlink:href="#mb51fba1716" y="375.496"/>
      </g>
     </g>
    </g>
    <g id="text_5">
     <!-- Momentum p [GeV] -->
     <defs>
      <path d="M 9.8125 72.90625 
L 24.515625 72.90625 
L 43.109375 23.296875 
L 61.8125 72.90625 
L 76.515625 72.90625 
L 76.515625 0 
L 66.890625 0 
L 66.890625 64.015625 
L 48.09375 14.015625 
L 38.1875 14.015625 
L 19.390625 64.015625 
L 19.390625 0 
L 9.8125 0 
z
" id="DejaVuSans-4d"/>
      <path d="M 30.609375 48.390625 
Q 23.390625 48.390625 19.1875 42.75 
Q 14.984375 37.109375 14.984375 27.296875 
Q 14.984375 17.484375 19.15625 11.84375 
Q 23.34375 6.203125 30.609375 6.203125 
Q 37.796875 6.203125 41.984375 11.859375 
Q 46.1875 17.53125 46.1875 27.296875 
Q 46.1875 37.015625 41.984375 42.703125 
Q 37.796875 48.390625 30.609375 48.390625 
z
M 30.609375 56 
Q 42.328125 56 49.015625 48.375 
Q 55.71875 40.765625 55.71875 27.296875 
Q 55.71875 13.875 49.015625 6.21875 
Q 42.328125 -1.421875 30.609375 -1.421875 
Q 18.84375 -1.421875 12.171875 6.21875 
Q 5.515625 13.875 5.515625 27.296875 
Q 5.515625 40.765625 12.171875 48.375 
Q 18.84375 56 30.609375 56 
z
" id="DejaVuSans-6f"/>
      <path d="M 52 44.1875 
Q 55.375 50.25 60.0625 53.125 
Q 64.75 56 71.09375 56 
Q 79.640625 56 84.28125 50.015625 
Q 88.921875 44.046875 88.921875 33.015625 
L 88.921875 0 
L 79.890625 0 
L 79.890625 32.71875 
Q 79.890625 40.578125 77.09375 44.375 
Q 74.3125 48.1875 68.609375 48.1875 
Q 61.625 48.1875 57.5625 43.546875 
Q 53.515625 38.921875 53.515625 30.90625 
L 53.515625 0 
L 44.484375 0 
L 44.484375 32.71875 
Q 44.484375 40.625 41.703125 44.40625 
Q 38.921875 48.1875 33.109375 48.1875 
Q 26.21875 48.1875 22.15625 43.53125 
Q 18.109375 38.875 18.109375 30.90625 
L 18.109375 0 
L 9.078125 0 
L 9.078125 54.6875 
L 18.109375 54.6875 
L 18.109375 46.1875 
Q 21.1875 51.21875 25.484375 53.609375 
Q 29.78125 56 35.6875 56 
Q 41.65625 56 45.828125 52.96875 
Q 50 49.953125 52 44.1875 
z
" id="DejaVuSans-6d"/>
      <path d="M 56.203125 29.59375 
L 56.203125 25.203125 
L 14.890625 25.203125 
Q 15.484375 15.921875 20.484375 11.0625 
Q 25.484375 6.203125 34.421875 6.203125 
Q 39.59375 6.203125 44.453125 7.46875 
Q 49.3125 8.734375 54.109375 11.28125 
L 54.109375 2.78125 
Q 49.265625 0.734375 44.1875 -0.34375 
Q 39.109375 -1.421875 33.890625 -1.421875 
Q 20.796875 -1.421875 13.15625 6.1875 
Q 5.515625 13.8125 5.515625 26.8125 
Q 5.515625 40.234375 12.765625 48.109375 
Q 20.015625 56 32.328125 56 
Q 43.359375 56 49.78125 48.890625 
Q 56.203125 41.796875 56.203125 29.59375 
z
M 47.21875 32.234375 
Q 47.125 39.59375 43.09375 43.984375 
Q 39.0625 48.390625 32.421875 48.390625 
Q 24.90625 48.390625 20.390625 44.140625 
Q 15.875 39.890625 15.1875 32.171875 
z
" id="DejaVuSans-65"/>
      <path d="M 54.890625 33.015625 
L 54.890625 0 
L 45.90625 0 
L 45.90625 32.71875 
Q 45.90625 40.484375 42.875 44.328125 
Q 39.84375 48.1875 33.796875 48.1875 
Q 26.515625 48.1875 22.3125 43.546875 
Q 18.109375 38.921875 18.109375 30.90625 
L 18.109375 0 
L 9.078125 0 
L 9.078125 54.6875 
L 18.109375 54.6875 
L 18.109375 46.1875 
Q 21.34375 51.125 25.703125 53.5625 
Q 30.078125 56 35.796875 56 
Q 45.21875 56 50.046875 50.171875 
Q 54.890625 44.34375 54.890625 33.015625 
z
" id="DejaVuSans-6e"/>
      <path d="M 18.3125 70.21875 
L 18.3125 54.6875 
L 36.8125 54.6875 
L 36.8125 47.703125 
L 18.3125 47.703125 
L 18.3125 18.015625 
Q 18.3125 11.328125 20.140625 9.421875 
Q 21.96875 7.515625 27.59375 7.515625 
L 36.8125 7.515625 
L 36.8125 0 
L 27.59375 0 
Q 17.1875 0 13.234375 3.875 
Q 9.28125 7.765625 9.28125 18.015625 
L 9.28125 47.703125 
L 2.6875 47.703125 
L 2.6875 54.6875 
L 9.28125 54.6875 
L 9.28125 70.21875 
z
" id="DejaVuSans-74"/>
      <path d="M 8.5 21.578125 
L 8.5 54.6875 
L 17.484375 54.6875 
L 17.484375 21.921875 
Q 17.484375 14.15625 20.5 10.265625 
Q 23.53125 6.390625 29.59375 6.390625 
Q 36.859375 6.390625 41.078125 11.03125 
Q 45.3125 15.671875 45.3125 23.6875 
L 45.3125 54.6875 
L 54.296875 54.6875 
L 54.296875 0 
L 45.3125 0 
L 45.3125 8.40625 
Q 42.046875 3.421875 37.71875 1 
Q 33.40625 -1.421875 27.6875 -1.421875 
Q 18.265625 -1.421875 13.375 4.4375 
Q 8.5 10.296875 8.5 21.578125 
z
M 31.109375 56 
z
" id="DejaVuSans-75"/>
      <path id="DejaVuSans-20"/>
      <path d="M 18.109375 8.203125 
L 18.109375 -20.796875 
L 9.078125 -20.796875 
L 9.078125 54.6875 
L 18.109375 54.6875 
L 18.109375 46.390625 
Q 20.953125 51.265625 25.265625 53.625 
Q 29.59375 56 35.59375 56 
Q 45.5625 56 51.78125 48.09375 
Q 58.015625 40.1875 58.015625 27.296875 
Q 58.015625 14.40625 51.78125 6.484375 
Q 45.5625 -1.421875 35.59375 -1.421875 
Q 29.59375 -1.421875 25.265625 0.953125 
Q 20.953125 3.328125 18.109375 8.203125 
z
M 48.6875 27.296875 
Q 48.6875 37.203125 44.609375 42.84375 
Q 40.53125 48.484375 33.40625 48.484375 
Q 26.265625 48.484375 22.1875 42.84375 
Q 18.109375 37.203125 18.109375 27.296875 
Q 18.109375 17.390625 22.1875 11.75 
Q 26.265625 6.109375 33.40625 6.109375 
Q 40.53125 6.109375 44.609375 11.75 
Q 48.6875 17.390625 48.6875 27.296875 
z
" id="DejaVuSans-70"/>
      <path d="M 8.59375 75.984375 
L 29.296875 75.984375 
L 29.296875 69 
L 17.578125 69 
L 17.578125 -6.203125 
L 29.296875 -6.203125 
L 29.296875 -13.1875 
L 8.59375 -13.1875 
z
" id="DejaVuSans-5b"/>
      <path d="M 59.515625 10.40625 
L 59.515625 29.984375 
L 43.40625 29.984375 
L 43.40625 38.09375 
L 69.28125 38.09375 
L 69.28125 6.78125 
Q 63.578125 2.734375 56.6875 0.65625 
Q 49.8125 -1.421875 42 -1.421875 
Q 24.90625 -1.421875 15.25 8.5625 
Q 5.609375 18.5625 5.609375 36.375 
Q 5.609375 54.25 15.25 64.234375 
Q 24.90625 74.21875 42 74.21875 
Q 49.125 74.21875 55.546875 72.453125 
Q 61.96875 70.703125 67.390625 67.28125 
L 67.390625 56.78125 
Q 61.921875 61.421875 55.765625 63.765625 
Q 49.609375 66.109375 42.828125 66.109375 
Q 29.4375 66.109375 22.71875 58.640625 
Q 16.015625 51.171875 16.015625 36.375 
Q 16.015625 21.625 22.71875 14.15625 
Q 29.4375 6.6875 42.828125 6.6875 
Q 48.046875 6.6875 52.140625 7.59375 
Q 56.25 8.5 59.515625 10.40625 
z
" id="DejaVuSans-47"/>
      <path d="M 28.609375 0 
L 0.78125 72.90625 
L 11.078125 72.90625 
L 34.1875 11.53125 
L 57.328125 72.90625 
L 67.578125 72.90625 
L 39.796875 0 
z
" id="DejaVuSans-56"/>
      <path d="M 30.421875 75.984375 
L 30.421875 -13.1875 
L 9.71875 -13.1875 
L 9.71875 -6.203125 
L 21.390625 -6.203125 
L 21.390625 69 
L 9.71875 69 
L 9.71875 75.984375 
z
" id="DejaVuSans-5d"/>
     </defs>
     <g transform="translate(209.41875 414.1385)scale(0.16 -0.16)">
      <use xlink:href="#DejaVuSans-4d"/>
      <use x="86.279297" xlink:href="#DejaVuSans-6f"/>
      <use x="147.460938" xlink:href="#DejaVuSans-6d"/>
      <use x="244.873047" xlink:href="#DejaVuSans-65"/>
      <use x="306.396484" xlink:href="#DejaVuSans-6e"/>
      <use x="369.775391" xlink:href="#DejaVuSans-74"/>
      <use x="408.984375" xlink:href="#DejaVuSans-75"/>
      <use x="472.363281" xlink:href="#DejaVuSans-6d"/>
      <use x="569.775391" xlink:href="#DejaVuSans-20"/>
      <use x="601.5625" xlink:href="#DejaVuSans-70"/>
      <use x="665.039062" xlink:href="#DejaVuSans-20"/>
      <use x="696.826172" xlink:href="#DejaVuSans-5b"/>
      <use x="735.839844" xlink:href="#DejaVuSans-47"/>
      <use x="813.330078" xlink:href="#DejaVuSans-65"/>
      <use x="874.853516" xlink:href="#DejaVuSans-56"/>
      <use x="943.261719" xlink:href="#DejaVuSans-5d"/>
     </g>
    </g>
   </g>
   <g id="matplotlib.axis_2">
    <g id="ytick_1">
     <g id="line2d_61">
      <path clip-path="url(#pcf6c55c31b)" d="M 58.79 374.044156 
L 517.21 374.044156 
" style="fill:none;stroke:#a6a6a6;stroke-linecap:square;stroke-width:0.8;"/>
     </g>
     <g id="line2d_62">
      <defs>
       <path d="M 0 0 
L -3.5 0 
" id="ma0f57e9a98" style="stroke:#000000;stroke-width:0.8;"/>
      </defs>
      <g>
       <use style="stroke:#000000;stroke-width:0.8;" x="58.79" xlink:href="#ma0f57e9a98" y="374.044156"/>
      </g>
     </g>
     <g id="text_6">
      <!-- 10 -->
      <g transform="translate(31.43 380.122906)scale(0.16 -0.16)">
       <use xlink:href="#DejaVuSans-31"/>
       <use x="63.623047" xlink:href="#DejaVuSans-30"/>
      </g>
     </g>
    </g>
    <g id="ytick_2">
     <g id="line2d_63">
      <path clip-path="url(#pcf6c55c31b)" d="M 58.79 317.509353 
L 517.21 317.509353 
" style="fill:none;stroke:#a6a6a6;stroke-linecap:square;stroke-width:0.8;"/>
     </g>
     <g id="line2d_64">
      <g>
       <use style="stroke:#000000;stroke-width:0.8;" x="58.79" xlink:href="#ma0f57e9a98" y="317.509353"/>
      </g>
     </g>
     <g id="text_7">
      <!-- 15 -->
      <defs>
       <path d="M 10.796875 72.90625 
L 49.515625 72.90625 
L 49.515625 64.59375 
L 19.828125 64.59375 
L 19.828125 46.734375 
Q 21.96875 47.46875 24.109375 47.828125 
Q 26.265625 48.1875 28.421875 48.1875 
Q 40.625 48.1875 47.75 41.5 
Q 54.890625 34.8125 54.890625 23.390625 
Q 54.890625 11.625 47.5625 5.09375 
Q 40.234375 -1.421875 26.90625 -1.421875 
Q 22.3125 -1.421875 17.546875 -0.640625 
Q 12.796875 0.140625 7.71875 1.703125 
L 7.71875 11.625 
Q 12.109375 9.234375 16.796875 8.0625 
Q 21.484375 6.890625 26.703125 6.890625 
Q 35.15625 6.890625 40.078125 11.328125 
Q 45.015625 15.765625 45.015625 23.390625 
Q 45.015625 31 40.078125 35.4375 
Q 35.15625 39.890625 26.703125 39.890625 
Q 22.75 39.890625 18.8125 39.015625 
Q 14.890625 38.140625 10.796875 36.28125 
z
" id="DejaVuSans-35"/>
      </defs>
      <g transform="translate(31.43 323.588103)scale(0.16 -0.16)">
       <use xlink:href="#DejaVuSans-31"/>
       <use x="63.623047" xlink:href="#DejaVuSans-35"/>
      </g>
     </g>
    </g>
    <g id="ytick_3">
     <g id="line2d_65">
      <path clip-path="url(#pcf6c55c31b)" d="M 58.79 260.97455 
L 517.21 260.97455 
" style="fill:none;stroke:#a6a6a6;stroke-linecap:square;stroke-width:0.8;"/>
     </g>
     <g id="line2d_66">
      <g>
       <use style="stroke:#000000;stroke-width:0.8;" x="58.79" xlink:href="#ma0f57e9a98" y="260.97455"/>
      </g>
     </g>
     <g id="text_8">
      <!-- 20 -->
      <g transform="translate(31.43 267.0533)scale(0.16 -0.16)">
       <use xlink:href="#DejaVuSans-32"/>
       <use x="63.623047" xlink:href="#DejaVuSans-30"/>
      </g>
     </g>
    </g>
    <g id="ytick_4">
     <g id="line2d_67">
      <path clip-path="url(#pcf6c55c31b)" d="M 58.79 204.439747 
L 517.21 204.439747 
" style="fill:none;stroke:#a6a6a6;stroke-linecap:square;stroke-width:0.8;"/>
     </g>
     <g id="line2d_68">
      <g>
       <use style="stroke:#000000;stroke-width:0.8;" x="58.79" xlink:href="#ma0f57e9a98" y="204.439747"/>
      </g>
     </g>
     <g id="text_9">
      <!-- 25 -->
      <g transform="translate(31.43 210.518497)scale(0.16 -0.16)">
       <use xlink:href="#DejaVuSans-32"/>
       <use x="63.623047" xlink:href="#DejaVuSans-35"/>
      </g>
     </g>
    </g>
    <g id="ytick_5">
     <g id="line2d_69">
      <path clip-path="url(#pcf6c55c31b)" d="M 58.79 147.904944 
L 517.21 147.904944 
" style="fill:none;stroke:#a6a6a6;stroke-linecap:square;stroke-width:0.8;"/>
     </g>
     <g id="line2d_70">
      <g>
       <use style="stroke:#000000;stroke-width:0.8;" x="58.79" xlink:href="#ma0f57e9a98" y="147.904944"/>
      </g>
     </g>
     <g id="text_10">
      <!-- 30 -->
      <defs>
       <path d="M 40.578125 39.3125 
Q 47.65625 37.796875 51.625 33 
Q 55.609375 28.21875 55.609375 21.1875 
Q 55.609375 10.40625 48.1875 4.484375 
Q 40.765625 -1.421875 27.09375 -1.421875 
Q 22.515625 -1.421875 17.65625 -0.515625 
Q 12.796875 0.390625 7.625 2.203125 
L 7.625 11.71875 
Q 11.71875 9.328125 16.59375 8.109375 
Q 21.484375 6.890625 26.8125 6.890625 
Q 36.078125 6.890625 40.9375 10.546875 
Q 45.796875 14.203125 45.796875 21.1875 
Q 45.796875 27.640625 41.28125 31.265625 
Q 36.765625 34.90625 28.71875 34.90625 
L 20.21875 34.90625 
L 20.21875 43.015625 
L 29.109375 43.015625 
Q 36.375 43.015625 40.234375 45.921875 
Q 44.09375 48.828125 44.09375 54.296875 
Q 44.09375 59.90625 40.109375 62.90625 
Q 36.140625 65.921875 28.71875 65.921875 
Q 24.65625 65.921875 20.015625 65.03125 
Q 15.375 64.15625 9.8125 62.3125 
L 9.8125 71.09375 
Q 15.4375 72.65625 20.34375 73.4375 
Q 25.25 74.21875 29.59375 74.21875 
Q 40.828125 74.21875 47.359375 69.109375 
Q 53.90625 64.015625 53.90625 55.328125 
Q 53.90625 49.265625 50.4375 45.09375 
Q 46.96875 40.921875 40.578125 39.3125 
z
" id="DejaVuSans-33"/>
      </defs>
      <g transform="translate(31.43 153.983694)scale(0.16 -0.16)">
       <use xlink:href="#DejaVuSans-33"/>
       <use x="63.623047" xlink:href="#DejaVuSans-30"/>
      </g>
     </g>
    </g>
    <g id="ytick_6">
     <g id="line2d_71">
      <path clip-path="url(#pcf6c55c31b)" d="M 58.79 91.370141 
L 517.21 91.370141 
" style="fill:none;stroke:#a6a6a6;stroke-linecap:square;stroke-width:0.8;"/>
     </g>
     <g id="line2d_72">
      <g>
       <use style="stroke:#000000;stroke-width:0.8;" x="58.79" xlink:href="#ma0f57e9a98" y="91.370141"/>
      </g>
     </g>
     <g id="text_11">
      <!-- 35 -->
      <g transform="translate(31.43 97.448891)scale(0.16 -0.16)">
       <use xlink:href="#DejaVuSans-33"/>
       <use x="63.623047" xlink:href="#DejaVuSans-35"/>
      </g>
     </g>
    </g>
    <g id="ytick_7">
     <g id="line2d_73">
      <path clip-path="url(#pcf6c55c31b)" d="M 58.79 34.835338 
L 517.21 34.835338 
" style="fill:none;stroke:#a6a6a6;stroke-linecap:square;stroke-width:0.8;"/>
     </g>
     <g id="line2d_74">
      <g>
       <use style="stroke:#000000;stroke-width:0.8;" x="58.79" xlink:href="#ma0f57e9a98" y="34.835338"/>
      </g>
     </g>
     <g id="text_12">
      <!-- 40 -->
      <defs>
       <path d="M 37.796875 64.3125 
L 12.890625 25.390625 
L 37.796875 25.390625 
z
M 35.203125 72.90625 
L 47.609375 72.90625 
L 47.609375 25.390625 
L 58.015625 25.390625 
L 58.015625 17.1875 
L 47.609375 17.1875 
L 47.609375 0 
L 37.796875 0 
L 37.796875 17.1875 
L 4.890625 17.1875 
L 4.890625 26.703125 
z
" id="DejaVuSans-34"/>
      </defs>
      <g transform="translate(31.43 40.914088)scale(0.16 -0.16)">
       <use xlink:href="#DejaVuSans-34"/>
       <use x="63.623047" xlink:href="#DejaVuSans-30"/>
      </g>
     </g>
    </g>
    <g id="text_13">
     <!-- Energy loss in 50 um Si in keV -->
     <defs>
      <path d="M 9.8125 72.90625 
L 55.90625 72.90625 
L 55.90625 64.59375 
L 19.671875 64.59375 
L 19.671875 43.015625 
L 54.390625 43.015625 
L 54.390625 34.71875 
L 19.671875 34.71875 
L 19.671875 8.296875 
L 56.78125 8.296875 
L 56.78125 0 
L 9.8125 0 
z
" id="DejaVuSans-45"/>
      <path d="M 41.109375 46.296875 
Q 39.59375 47.171875 37.8125 47.578125 
Q 36.03125 48 33.890625 48 
Q 26.265625 48 22.1875 43.046875 
Q 18.109375 38.09375 18.109375 28.8125 
L 18.109375 0 
L 9.078125 0 
L 9.078125 54.6875 
L 18.109375 54.6875 
L 18.109375 46.1875 
Q 20.953125 51.171875 25.484375 53.578125 
Q 30.03125 56 36.53125 56 
Q 37.453125 56 38.578125 55.875 
Q 39.703125 55.765625 41.0625 55.515625 
z
" id="DejaVuSans-72"/>
      <path d="M 45.40625 27.984375 
Q 45.40625 37.75 41.375 43.109375 
Q 37.359375 48.484375 30.078125 48.484375 
Q 22.859375 48.484375 18.828125 43.109375 
Q 14.796875 37.75 14.796875 27.984375 
Q 14.796875 18.265625 18.828125 12.890625 
Q 22.859375 7.515625 30.078125 7.515625 
Q 37.359375 7.515625 41.375 12.890625 
Q 45.40625 18.265625 45.40625 27.984375 
z
M 54.390625 6.78125 
Q 54.390625 -7.171875 48.1875 -13.984375 
Q 42 -20.796875 29.203125 -20.796875 
Q 24.46875 -20.796875 20.265625 -20.09375 
Q 16.0625 -19.390625 12.109375 -17.921875 
L 12.109375 -9.1875 
Q 16.0625 -11.328125 19.921875 -12.34375 
Q 23.78125 -13.375 27.78125 -13.375 
Q 36.625 -13.375 41.015625 -8.765625 
Q 45.40625 -4.15625 45.40625 5.171875 
L 45.40625 9.625 
Q 42.625 4.78125 38.28125 2.390625 
Q 33.9375 0 27.875 0 
Q 17.828125 0 11.671875 7.65625 
Q 5.515625 15.328125 5.515625 27.984375 
Q 5.515625 40.671875 11.671875 48.328125 
Q 17.828125 56 27.875 56 
Q 33.9375 56 38.28125 53.609375 
Q 42.625 51.21875 45.40625 46.390625 
L 45.40625 54.6875 
L 54.390625 54.6875 
z
" id="DejaVuSans-67"/>
      <path d="M 32.171875 -5.078125 
Q 28.375 -14.84375 24.75 -17.8125 
Q 21.140625 -20.796875 15.09375 -20.796875 
L 7.90625 -20.796875 
L 7.90625 -13.28125 
L 13.1875 -13.28125 
Q 16.890625 -13.28125 18.9375 -11.515625 
Q 21 -9.765625 23.484375 -3.21875 
L 25.09375 0.875 
L 2.984375 54.6875 
L 12.5 54.6875 
L 29.59375 11.921875 
L 46.6875 54.6875 
L 56.203125 54.6875 
z
" id="DejaVuSans-79"/>
      <path d="M 9.421875 75.984375 
L 18.40625 75.984375 
L 18.40625 0 
L 9.421875 0 
z
" id="DejaVuSans-6c"/>
      <path d="M 44.28125 53.078125 
L 44.28125 44.578125 
Q 40.484375 46.53125 36.375 47.5 
Q 32.28125 48.484375 27.875 48.484375 
Q 21.1875 48.484375 17.84375 46.4375 
Q 14.5 44.390625 14.5 40.28125 
Q 14.5 37.15625 16.890625 35.375 
Q 19.28125 33.59375 26.515625 31.984375 
L 29.59375 31.296875 
Q 39.15625 29.25 43.1875 25.515625 
Q 47.21875 21.78125 47.21875 15.09375 
Q 47.21875 7.46875 41.1875 3.015625 
Q 35.15625 -1.421875 24.609375 -1.421875 
Q 20.21875 -1.421875 15.453125 -0.5625 
Q 10.6875 0.296875 5.421875 2 
L 5.421875 11.28125 
Q 10.40625 8.6875 15.234375 7.390625 
Q 20.0625 6.109375 24.8125 6.109375 
Q 31.15625 6.109375 34.5625 8.28125 
Q 37.984375 10.453125 37.984375 14.40625 
Q 37.984375 18.0625 35.515625 20.015625 
Q 33.0625 21.96875 24.703125 23.78125 
L 21.578125 24.515625 
Q 13.234375 26.265625 9.515625 29.90625 
Q 5.8125 33.546875 5.8125 39.890625 
Q 5.8125 47.609375 11.28125 51.796875 
Q 16.75 56 26.8125 56 
Q 31.78125 56 36.171875 55.265625 
Q 40.578125 54.546875 44.28125 53.078125 
z
" id="DejaVuSans-73"/>
      <path d="M 9.421875 54.6875 
L 18.40625 54.6875 
L 18.40625 0 
L 9.421875 0 
z
M 9.421875 75.984375 
L 18.40625 75.984375 
L 18.40625 64.59375 
L 9.421875 64.59375 
z
" id="DejaVuSans-69"/>
      <path d="M 53.515625 70.515625 
L 53.515625 60.890625 
Q 47.90625 63.578125 42.921875 64.890625 
Q 37.9375 66.21875 33.296875 66.21875 
Q 25.25 66.21875 20.875 63.09375 
Q 16.5 59.96875 16.5 54.203125 
Q 16.5 49.359375 19.40625 46.890625 
Q 22.3125 44.4375 30.421875 42.921875 
L 36.375 41.703125 
Q 47.40625 39.59375 52.65625 34.296875 
Q 57.90625 29 57.90625 20.125 
Q 57.90625 9.515625 50.796875 4.046875 
Q 43.703125 -1.421875 29.984375 -1.421875 
Q 24.8125 -1.421875 18.96875 -0.25 
Q 13.140625 0.921875 6.890625 3.21875 
L 6.890625 13.375 
Q 12.890625 10.015625 18.65625 8.296875 
Q 24.421875 6.59375 29.984375 6.59375 
Q 38.421875 6.59375 43.015625 9.90625 
Q 47.609375 13.234375 47.609375 19.390625 
Q 47.609375 24.75 44.3125 27.78125 
Q 41.015625 30.8125 33.5 32.328125 
L 27.484375 33.5 
Q 16.453125 35.6875 11.515625 40.375 
Q 6.59375 45.0625 6.59375 53.421875 
Q 6.59375 63.09375 13.40625 68.65625 
Q 20.21875 74.21875 32.171875 74.21875 
Q 37.3125 74.21875 42.625 73.28125 
Q 47.953125 72.359375 53.515625 70.515625 
z
" id="DejaVuSans-53"/>
      <path d="M 9.078125 75.984375 
L 18.109375 75.984375 
L 18.109375 31.109375 
L 44.921875 54.6875 
L 56.390625 54.6875 
L 27.390625 29.109375 
L 57.625 0 
L 45.90625 0 
L 18.109375 26.703125 
L 18.109375 0 
L 9.078125 0 
z
" id="DejaVuSans-6b"/>
     </defs>
     <g transform="translate(24.1025 315.75925)rotate(-90)scale(0.16 -0.16)">
      <use xlink:href="#DejaVuSans-45"/>
      <use x="63.183594" xlink:href="#DejaVuSans-6e"/>
      <use x="126.5625" xlink:href="#DejaVuSans-65"/>
      <use x="188.085938" xlink:href="#DejaVuSans-72"/>
      <use x="229.183594" xlink:href="#DejaVuSans-67"/>
      <use x="292.660156" xlink:href="#DejaVuSans-79"/>
      <use x="351.839844" xlink:href="#DejaVuSans-20"/>
      <use x="383.626953" xlink:href="#DejaVuSans-6c"/>
      <use x="411.410156" xlink:href="#DejaVuSans-6f"/>
      <use x="472.591797" xlink:href="#DejaVuSans-73"/>
      <use x="524.691406" xlink:href="#DejaVuSans-73"/>
      <use x="576.791016" xlink:href="#DejaVuSans-20"/>
      <use x="608.578125" xlink:href="#DejaVuSans-69"/>
      <use x="636.361328" xlink:href="#DejaVuSans-6e"/>
      <use x="699.740234" xlink:href="#DejaVuSans-20"/>
      <use x="731.527344" xlink:href="#DejaVuSans-35"/>
      <use x="795.150391" xlink:href="#DejaVuSans-30"/>
      <use x="858.773438" xlink:href="#DejaVuSans-20"/>
      <use x="890.560547" xlink:href="#DejaVuSans-75"/>
      <use x="953.939453" xlink:href="#DejaVuSans-6d"/>
      <use x="1051.351562" xlink:href="#DejaVuSans-20"/>
      <use x="1083.138672" xlink:href="#DejaVuSans-53"/>
      <use x="1146.615234" xlink:href="#DejaVuSans-69"/>
      <use x="1174.398438" xlink:href="#DejaVuSans-20"/>
      <use x="1206.185547" xlink:href="#DejaVuSans-69"/>
      <use x="1233.96875" xlink:href="#DejaVuSans-6e"/>
      <use x="1297.347656" xlink:href="#DejaVuSans-20"/>
      <use x="1329.134766" xlink:href="#DejaVuSans-6b"/>
      <use x="1386.998047" xlink:href="#DejaVuSans-65"/>
      <use x="1448.521484" xlink:href="#DejaVuSans-56"/>
     </g>
    </g>
   </g>
   <g id="line2d_75">
    <path clip-path="url(#pcf6c55c31b)" d="M 79.627273 29.782545 
L 82.547411 53.488392 
L 85.467549 75.146015 
L 88.387688 94.91495 
L 90.890663 110.468651 
L 93.393639 124.829678 
L 95.896615 138.078746 
L 98.39959 150.291284 
L 100.902566 161.537756 
L 103.405542 171.883982 
L 105.908518 181.391426 
L 108.411493 190.117473 
L 110.914469 198.11569 
L 113.417445 205.436071 
L 115.92042 212.125264 
L 118.423396 218.226789 
L 120.926372 223.78124 
L 123.429348 228.826475 
L 125.932323 233.397793 
L 128.435299 237.528104 
L 130.938275 241.248086 
L 133.44125 244.586329 
L 135.944226 247.569474 
L 138.447202 250.222345 
L 140.950177 252.568066 
L 143.453153 254.628177 
L 145.956129 256.422738 
L 148.459105 257.970429 
L 150.96208 259.288643 
L 153.882219 260.558066 
L 156.802357 261.560937 
L 159.722495 262.319141 
L 162.642634 262.852805 
L 165.562772 263.18043 
L 168.900073 263.324321 
L 172.237374 263.244472 
L 175.991837 262.913358 
L 179.746301 262.352759 
L 183.917927 261.49017 
L 188.089553 260.403878 
L 192.678342 258.98188 
L 197.684293 257.194236 
L 203.107407 255.018326 
L 208.947684 252.438983 
L 215.622286 249.241492 
L 223.131213 245.385244 
L 231.474465 240.846225 
L 241.486368 235.131158 
L 253.166921 228.198008 
L 268.184776 219.010943 
L 290.294394 205.197009 
L 342.022559 172.809449 
L 364.54934 159.011857 
L 384.990308 146.749875 
L 404.596951 135.245807 
L 424.203595 124.000248 
L 444.2274 112.772285 
L 465.502694 101.100876 
L 488.8638 88.547225 
L 496.372727 84.561673 
L 496.372727 84.561673 
" style="fill:none;stroke:#000000;stroke-linecap:square;stroke-width:2;"/>
   </g>
   <g id="line2d_76">
    <path clip-path="url(#pcf6c55c31b)" d="M 79.627273 29.782545 
L 82.547411 53.488392 
L 85.467549 75.146015 
L 88.387688 94.91495 
L 90.890663 110.468651 
L 93.393639 124.829678 
L 95.896615 138.078746 
L 98.39959 150.291284 
L 100.902566 161.537756 
L 103.405542 171.883982 
L 105.908518 181.391426 
L 108.411493 190.117473 
L 110.914469 198.11569 
L 113.417445 205.436071 
L 115.92042 212.125264 
L 118.423396 218.226789 
L 120.926372 223.78124 
L 123.429348 228.826475 
L 125.932323 233.397793 
L 127.600974 236.198397 
L 128.018136 238.44297 
L 130.521112 242.251664 
L 133.024088 245.690477 
L 135.527063 248.78534 
L 138.030039 251.560496 
L 140.533015 254.038596 
L 143.035991 256.240801 
L 145.538966 258.186871 
L 148.459105 260.158096 
L 151.379243 261.832928 
L 154.299381 263.236428 
L 157.21952 264.391695 
L 160.139658 265.32001 
L 163.476959 266.128111 
L 166.81426 266.692111 
L 170.151561 267.03636 
L 173.906024 267.188445 
L 177.660488 267.118825 
L 181.832114 266.812411 
L 186.420903 266.232717 
L 191.426854 265.351883 
L 196.849968 264.151372 
L 202.690245 262.62207 
L 209.364847 260.633085 
L 216.873774 258.157422 
L 226.051351 254.882952 
L 237.731905 250.458768 
L 256.08706 243.231549 
L 286.122768 231.419271 
L 303.226436 224.946756 
L 318.661452 219.339651 
L 333.262144 214.265608 
L 347.862836 209.428558 
L 362.046365 204.962678 
L 376.229894 200.727243 
L 390.830585 196.604012 
L 405.431277 192.712161 
L 420.449131 188.936178 
L 436.30131 185.178879 
L 453.404978 181.357056 
L 472.177295 177.395381 
L 493.452589 173.136919 
L 496.372727 172.567849 
L 496.372727 172.567849 
" style="fill:none;stroke:#ff0000;stroke-dasharray:7.4,3.2;stroke-dashoffset:0;stroke-width:2;"/>
   </g>
   <g id="line2d_77">
    <path clip-path="url(#pcf6c55c31b)" d="M 79.627273 96.454869 
L 82.130248 115.671118 
L 84.633224 133.410226 
L 87.1362 149.780278 
L 89.639176 164.881509 
L 92.142151 178.806874 
L 94.645127 191.642568 
L 97.148103 203.468514 
L 99.651078 214.358818 
L 102.154054 224.382186 
L 104.65703 233.602312 
L 107.160005 242.078248 
L 109.662981 249.864731 
L 112.165957 257.0125 
L 114.668933 263.568586 
L 117.171908 269.576579 
L 119.674884 275.076881 
L 122.17786 280.106931 
L 124.680835 284.701427 
L 127.183811 288.892524 
L 127.600974 289.553946 
L 128.018136 291.77908 
L 130.938275 296.089045 
L 133.858413 299.967925 
L 136.778551 303.453013 
L 139.69869 306.578554 
L 142.618828 309.375984 
L 145.538966 311.874149 
L 148.459105 314.099513 
L 151.796405 316.33978 
L 155.133706 318.288375 
L 158.471007 319.975177 
L 161.808308 321.427216 
L 165.562772 322.810487 
L 169.317235 323.95878 
L 173.488862 324.992903 
L 177.660488 325.805225 
L 182.249277 326.478114 
L 187.255228 326.987867 
L 192.678342 327.319538 
L 198.935781 327.470222 
L 206.027546 327.40462 
L 214.370798 327.087304 
L 224.382701 326.469699 
L 237.731905 325.408119 
L 301.140622 320.068733 
L 319.91294 318.867941 
L 338.685258 317.8934 
L 358.291901 317.102741 
L 379.150032 316.487904 
L 402.093976 316.037378 
L 428.792383 315.743143 
L 462.999718 315.603378 
L 496.372727 315.586327 
L 496.372727 315.586327 
" style="fill:none;stroke:#006400;stroke-dasharray:2,3.3;stroke-dashoffset:0;stroke-width:2;"/>
   </g>
   <g id="line2d_78">
    <path clip-path="url(#pcf6c55c31b)" d="M 79.627273 171.189544 
L 82.130248 187.530102 
L 84.633224 202.545601 
L 87.1362 216.340264 
L 89.639176 229.009988 
L 92.142151 240.643011 
L 94.645127 251.320527 
L 97.148103 261.117251 
L 99.651078 270.101939 
L 102.154054 278.337867 
L 104.65703 285.883271 
L 107.160005 292.791758 
L 109.662981 299.112671 
L 112.165957 304.891443 
L 114.668933 310.169903 
L 117.171908 314.986574 
L 119.674884 319.376937 
L 122.17786 323.373678 
L 124.680835 327.006912 
L 127.183811 330.304394 
L 127.600974 330.823158 
L 128.018136 332.907377 
L 130.938275 336.278166 
L 133.858413 339.296104 
L 136.778551 341.992575 
L 139.69869 344.396268 
L 142.618828 346.533411 
L 145.956129 348.680126 
L 149.29343 350.542451 
L 152.630731 352.149728 
L 155.968032 353.528441 
L 159.722495 354.835953 
L 163.476959 355.914894 
L 167.648585 356.878612 
L 172.237374 357.690757 
L 176.826163 358.280272 
L 181.832114 358.708505 
L 187.672391 358.972705 
L 193.92983 359.028142 
L 201.021594 358.868668 
L 209.364847 358.455912 
L 219.793912 357.706316 
L 234.394604 356.410204 
L 286.122768 351.635224 
L 304.477923 350.256313 
L 322.415916 349.128095 
L 340.771071 348.193408 
L 360.377714 347.421408 
L 381.235845 346.825443 
L 404.596951 346.386593 
L 431.712522 346.108182 
L 467.171344 345.982752 
L 496.372727 345.971422 
L 496.372727 345.971422 
" style="fill:none;stroke:#0000ff;stroke-linecap:square;stroke-width:2;"/>
   </g>
   <g id="line2d_79">
    <path clip-path="url(#pcf6c55c31b)" d="M 79.627273 346.018368 
L 496.372727 346.018368 
L 496.372727 346.018368 
" style="fill:none;stroke:#808080;stroke-linecap:square;stroke-width:2;"/>
   </g>
   <g id="line2d_80">
    <path clip-path="url(#pcf6c55c31b)" d="M 192.261179 359.033455 
" style="fill:none;stroke:#1f77b4;stroke-linecap:square;stroke-width:1.5;"/>
    <defs>
     <path d="M 0 3 
C 0.795609 3 1.55874 2.683901 2.12132 2.12132 
C 2.683901 1.55874 3 0.795609 3 0 
C 3 -0.795609 2.683901 -1.55874 2.12132 -2.12132 
C 1.55874 -2.683901 0.795609 -3 0 -3 
C -0.795609 -3 -1.55874 -2.683901 -2.12132 -2.12132 
C -2.683901 -1.55874 -3 -0.795609 -3 0 
C -3 0.795609 -2.683901 1.55874 -2.12132 2.12132 
C -1.55874 2.683901 -0.795609 3 0 3 
z
" id="mc49cd9cf77" style="stroke:#1f77b4;"/>
    </defs>
    <g clip-path="url(#pcf6c55c31b)">
     <use style="fill:#1f77b4;stroke:#1f77b4;" x="192.261179" xlink:href="#mc49cd9cf77" y="359.033455"/>
    </g>
   </g>
   <g id="patch_3">
    <path d="M 58.79 375.496 
L 58.79 13.32 
" style="fill:none;stroke:#000000;stroke-linecap:square;stroke-linejoin:miter;stroke-width:0.8;"/>
   </g>
   <g id="patch_4">
    <path d="M 517.21 375.496 
L 517.21 13.32 
" style="fill:none;stroke:#000000;stroke-linecap:square;stroke-linejoin:miter;stroke-width:0.8;"/>
   </g>
   <g id="patch_5">
    <path d="M 58.79 375.496 
L 517.21 375.496 
" style="fill:none;stroke:#000000;stroke-linecap:square;stroke-linejoin:miter;stroke-width:0.8;"/>
   </g>
   <g id="patch_6">
    <path d="M 58.79 13.32 
L 517.21 13.32 
" style="fill:none;stroke:#000000;stroke-linecap:square;stroke-linejoin:miter;stroke-width:0.8;"/>
   </g>
   <g id="legend_1">
    <g id="patch_7">
     <path d="M 210.45625 109.38875 
L 365.54375 109.38875 
Q 367.54375 109.38875 367.54375 107.38875 
L 367.54375 20.32 
Q 367.54375 18.32 365.54375 18.32 
L 210.45625 18.32 
Q 208.45625 18.32 208.45625 20.32 
L 208.45625 107.38875 
Q 208.45625 109.38875 210.45625 109.38875 
z
" style="fill:#ffffff;opacity:0.8;stroke:#cccccc;stroke-linejoin:miter;"/>
    </g>
    <g id="line2d_81">
     <path d="M 212.45625 26.418437 
L 232.45625 26.418437 
" style="fill:none;stroke:#000000;stroke-linecap:square;stroke-width:2;"/>
    </g>
    <g id="line2d_82"/>
    <g id="text_14">
     <!-- Bethe no correction -->
     <defs>
      <path d="M 19.671875 34.8125 
L 19.671875 8.109375 
L 35.5 8.109375 
Q 43.453125 8.109375 47.28125 11.40625 
Q 51.125 14.703125 51.125 21.484375 
Q 51.125 28.328125 47.28125 31.5625 
Q 43.453125 34.8125 35.5 34.8125 
z
M 19.671875 64.796875 
L 19.671875 42.828125 
L 34.28125 42.828125 
Q 41.5 42.828125 45.03125 45.53125 
Q 48.578125 48.25 48.578125 53.8125 
Q 48.578125 59.328125 45.03125 62.0625 
Q 41.5 64.796875 34.28125 64.796875 
z
M 9.8125 72.90625 
L 35.015625 72.90625 
Q 46.296875 72.90625 52.390625 68.21875 
Q 58.5 63.53125 58.5 54.890625 
Q 58.5 48.1875 55.375 44.234375 
Q 52.25 40.28125 46.1875 39.3125 
Q 53.46875 37.75 57.5 32.78125 
Q 61.53125 27.828125 61.53125 20.40625 
Q 61.53125 10.640625 54.890625 5.3125 
Q 48.25 0 35.984375 0 
L 9.8125 0 
z
" id="DejaVuSans-42"/>
      <path d="M 54.890625 33.015625 
L 54.890625 0 
L 45.90625 0 
L 45.90625 32.71875 
Q 45.90625 40.484375 42.875 44.328125 
Q 39.84375 48.1875 33.796875 48.1875 
Q 26.515625 48.1875 22.3125 43.546875 
Q 18.109375 38.921875 18.109375 30.90625 
L 18.109375 0 
L 9.078125 0 
L 9.078125 75.984375 
L 18.109375 75.984375 
L 18.109375 46.1875 
Q 21.34375 51.125 25.703125 53.5625 
Q 30.078125 56 35.796875 56 
Q 45.21875 56 50.046875 50.171875 
Q 54.890625 44.34375 54.890625 33.015625 
z
" id="DejaVuSans-68"/>
      <path d="M 48.78125 52.59375 
L 48.78125 44.1875 
Q 44.96875 46.296875 41.140625 47.34375 
Q 37.3125 48.390625 33.40625 48.390625 
Q 24.65625 48.390625 19.8125 42.84375 
Q 14.984375 37.3125 14.984375 27.296875 
Q 14.984375 17.28125 19.8125 11.734375 
Q 24.65625 6.203125 33.40625 6.203125 
Q 37.3125 6.203125 41.140625 7.25 
Q 44.96875 8.296875 48.78125 10.40625 
L 48.78125 2.09375 
Q 45.015625 0.34375 40.984375 -0.53125 
Q 36.96875 -1.421875 32.421875 -1.421875 
Q 20.0625 -1.421875 12.78125 6.34375 
Q 5.515625 14.109375 5.515625 27.296875 
Q 5.515625 40.671875 12.859375 48.328125 
Q 20.21875 56 33.015625 56 
Q 37.15625 56 41.109375 55.140625 
Q 45.0625 54.296875 48.78125 52.59375 
z
" id="DejaVuSans-63"/>
     </defs>
     <g transform="translate(240.45625 29.918437)scale(0.1 -0.1)">
      <use xlink:href="#DejaVuSans-42"/>
      <use x="68.603516" xlink:href="#DejaVuSans-65"/>
      <use x="130.126953" xlink:href="#DejaVuSans-74"/>
      <use x="169.335938" xlink:href="#DejaVuSans-68"/>
      <use x="232.714844" xlink:href="#DejaVuSans-65"/>
      <use x="294.238281" xlink:href="#DejaVuSans-20"/>
      <use x="326.025391" xlink:href="#DejaVuSans-6e"/>
      <use x="389.404297" xlink:href="#DejaVuSans-6f"/>
      <use x="450.585938" xlink:href="#DejaVuSans-20"/>
      <use x="482.373047" xlink:href="#DejaVuSans-63"/>
      <use x="537.353516" xlink:href="#DejaVuSans-6f"/>
      <use x="598.535156" xlink:href="#DejaVuSans-72"/>
      <use x="639.632812" xlink:href="#DejaVuSans-72"/>
      <use x="680.714844" xlink:href="#DejaVuSans-65"/>
      <use x="742.238281" xlink:href="#DejaVuSans-63"/>
      <use x="797.21875" xlink:href="#DejaVuSans-74"/>
      <use x="836.427734" xlink:href="#DejaVuSans-69"/>
      <use x="864.210938" xlink:href="#DejaVuSans-6f"/>
      <use x="925.392578" xlink:href="#DejaVuSans-6e"/>
     </g>
    </g>
    <g id="line2d_83">
     <path d="M 212.45625 41.096563 
L 232.45625 41.096563 
" style="fill:none;stroke:#ff0000;stroke-dasharray:7.4,3.2;stroke-dashoffset:0;stroke-width:2;"/>
    </g>
    <g id="line2d_84"/>
    <g id="text_15">
     <!-- Bethe density correction -->
     <defs>
      <path d="M 45.40625 46.390625 
L 45.40625 75.984375 
L 54.390625 75.984375 
L 54.390625 0 
L 45.40625 0 
L 45.40625 8.203125 
Q 42.578125 3.328125 38.25 0.953125 
Q 33.9375 -1.421875 27.875 -1.421875 
Q 17.96875 -1.421875 11.734375 6.484375 
Q 5.515625 14.40625 5.515625 27.296875 
Q 5.515625 40.1875 11.734375 48.09375 
Q 17.96875 56 27.875 56 
Q 33.9375 56 38.25 53.625 
Q 42.578125 51.265625 45.40625 46.390625 
z
M 14.796875 27.296875 
Q 14.796875 17.390625 18.875 11.75 
Q 22.953125 6.109375 30.078125 6.109375 
Q 37.203125 6.109375 41.296875 11.75 
Q 45.40625 17.390625 45.40625 27.296875 
Q 45.40625 37.203125 41.296875 42.84375 
Q 37.203125 48.484375 30.078125 48.484375 
Q 22.953125 48.484375 18.875 42.84375 
Q 14.796875 37.203125 14.796875 27.296875 
z
" id="DejaVuSans-64"/>
     </defs>
     <g transform="translate(240.45625 44.596563)scale(0.1 -0.1)">
      <use xlink:href="#DejaVuSans-42"/>
      <use x="68.603516" xlink:href="#DejaVuSans-65"/>
      <use x="130.126953" xlink:href="#DejaVuSans-74"/>
      <use x="169.335938" xlink:href="#DejaVuSans-68"/>
      <use x="232.714844" xlink:href="#DejaVuSans-65"/>
      <use x="294.238281" xlink:href="#DejaVuSans-20"/>
      <use x="326.025391" xlink:href="#DejaVuSans-64"/>
      <use x="389.501953" xlink:href="#DejaVuSans-65"/>
      <use x="451.025391" xlink:href="#DejaVuSans-6e"/>
      <use x="514.404297" xlink:href="#DejaVuSans-73"/>
      <use x="566.503906" xlink:href="#DejaVuSans-69"/>
      <use x="594.287109" xlink:href="#DejaVuSans-74"/>
      <use x="633.496094" xlink:href="#DejaVuSans-79"/>
      <use x="692.675781" xlink:href="#DejaVuSans-20"/>
      <use x="724.462891" xlink:href="#DejaVuSans-63"/>
      <use x="779.443359" xlink:href="#DejaVuSans-6f"/>
      <use x="840.625" xlink:href="#DejaVuSans-72"/>
      <use x="881.722656" xlink:href="#DejaVuSans-72"/>
      <use x="922.804688" xlink:href="#DejaVuSans-65"/>
      <use x="984.328125" xlink:href="#DejaVuSans-63"/>
      <use x="1039.308594" xlink:href="#DejaVuSans-74"/>
      <use x="1078.517578" xlink:href="#DejaVuSans-69"/>
      <use x="1106.300781" xlink:href="#DejaVuSans-6f"/>
      <use x="1167.482422" xlink:href="#DejaVuSans-6e"/>
     </g>
    </g>
    <g id="line2d_85">
     <path d="M 212.45625 55.774687 
L 232.45625 55.774687 
" style="fill:none;stroke:#006400;stroke-dasharray:2,3.3;stroke-dashoffset:0;stroke-width:2;"/>
    </g>
    <g id="line2d_86"/>
    <g id="text_16">
     <!-- Bethe Tcut = 60 keV -->
     <defs>
      <path d="M -0.296875 72.90625 
L 61.375 72.90625 
L 61.375 64.59375 
L 35.5 64.59375 
L 35.5 0 
L 25.59375 0 
L 25.59375 64.59375 
L -0.296875 64.59375 
z
" id="DejaVuSans-54"/>
      <path d="M 10.59375 45.40625 
L 73.1875 45.40625 
L 73.1875 37.203125 
L 10.59375 37.203125 
z
M 10.59375 25.484375 
L 73.1875 25.484375 
L 73.1875 17.1875 
L 10.59375 17.1875 
z
" id="DejaVuSans-3d"/>
      <path d="M 33.015625 40.375 
Q 26.375 40.375 22.484375 35.828125 
Q 18.609375 31.296875 18.609375 23.390625 
Q 18.609375 15.53125 22.484375 10.953125 
Q 26.375 6.390625 33.015625 6.390625 
Q 39.65625 6.390625 43.53125 10.953125 
Q 47.40625 15.53125 47.40625 23.390625 
Q 47.40625 31.296875 43.53125 35.828125 
Q 39.65625 40.375 33.015625 40.375 
z
M 52.59375 71.296875 
L 52.59375 62.3125 
Q 48.875 64.0625 45.09375 64.984375 
Q 41.3125 65.921875 37.59375 65.921875 
Q 27.828125 65.921875 22.671875 59.328125 
Q 17.53125 52.734375 16.796875 39.40625 
Q 19.671875 43.65625 24.015625 45.921875 
Q 28.375 48.1875 33.59375 48.1875 
Q 44.578125 48.1875 50.953125 41.515625 
Q 57.328125 34.859375 57.328125 23.390625 
Q 57.328125 12.15625 50.6875 5.359375 
Q 44.046875 -1.421875 33.015625 -1.421875 
Q 20.359375 -1.421875 13.671875 8.265625 
Q 6.984375 17.96875 6.984375 36.375 
Q 6.984375 53.65625 15.1875 63.9375 
Q 23.390625 74.21875 37.203125 74.21875 
Q 40.921875 74.21875 44.703125 73.484375 
Q 48.484375 72.75 52.59375 71.296875 
z
" id="DejaVuSans-36"/>
     </defs>
     <g transform="translate(240.45625 59.274687)scale(0.1 -0.1)">
      <use xlink:href="#DejaVuSans-42"/>
      <use x="68.603516" xlink:href="#DejaVuSans-65"/>
      <use x="130.126953" xlink:href="#DejaVuSans-74"/>
      <use x="169.335938" xlink:href="#DejaVuSans-68"/>
      <use x="232.714844" xlink:href="#DejaVuSans-65"/>
      <use x="294.238281" xlink:href="#DejaVuSans-20"/>
      <use x="326.025391" xlink:href="#DejaVuSans-54"/>
      <use x="386.84375" xlink:href="#DejaVuSans-63"/>
      <use x="441.824219" xlink:href="#DejaVuSans-75"/>
      <use x="505.203125" xlink:href="#DejaVuSans-74"/>
      <use x="544.412109" xlink:href="#DejaVuSans-20"/>
      <use x="576.199219" xlink:href="#DejaVuSans-3d"/>
      <use x="659.988281" xlink:href="#DejaVuSans-20"/>
      <use x="691.775391" xlink:href="#DejaVuSans-36"/>
      <use x="755.398438" xlink:href="#DejaVuSans-30"/>
      <use x="819.021484" xlink:href="#DejaVuSans-20"/>
      <use x="850.808594" xlink:href="#DejaVuSans-6b"/>
      <use x="908.671875" xlink:href="#DejaVuSans-65"/>
      <use x="970.195312" xlink:href="#DejaVuSans-56"/>
     </g>
    </g>
    <g id="line2d_87">
     <path d="M 212.45625 70.452812 
L 232.45625 70.452812 
" style="fill:none;stroke:#0000ff;stroke-linecap:square;stroke-width:2;"/>
    </g>
    <g id="line2d_88"/>
    <g id="text_17">
     <!-- MPV Landau -->
     <defs>
      <path d="M 19.671875 64.796875 
L 19.671875 37.40625 
L 32.078125 37.40625 
Q 38.96875 37.40625 42.71875 40.96875 
Q 46.484375 44.53125 46.484375 51.125 
Q 46.484375 57.671875 42.71875 61.234375 
Q 38.96875 64.796875 32.078125 64.796875 
z
M 9.8125 72.90625 
L 32.078125 72.90625 
Q 44.34375 72.90625 50.609375 67.359375 
Q 56.890625 61.8125 56.890625 51.125 
Q 56.890625 40.328125 50.609375 34.8125 
Q 44.34375 29.296875 32.078125 29.296875 
L 19.671875 29.296875 
L 19.671875 0 
L 9.8125 0 
z
" id="DejaVuSans-50"/>
      <path d="M 9.8125 72.90625 
L 19.671875 72.90625 
L 19.671875 8.296875 
L 55.171875 8.296875 
L 55.171875 0 
L 9.8125 0 
z
" id="DejaVuSans-4c"/>
      <path d="M 34.28125 27.484375 
Q 23.390625 27.484375 19.1875 25 
Q 14.984375 22.515625 14.984375 16.5 
Q 14.984375 11.71875 18.140625 8.90625 
Q 21.296875 6.109375 26.703125 6.109375 
Q 34.1875 6.109375 38.703125 11.40625 
Q 43.21875 16.703125 43.21875 25.484375 
L 43.21875 27.484375 
z
M 52.203125 31.203125 
L 52.203125 0 
L 43.21875 0 
L 43.21875 8.296875 
Q 40.140625 3.328125 35.546875 0.953125 
Q 30.953125 -1.421875 24.3125 -1.421875 
Q 15.921875 -1.421875 10.953125 3.296875 
Q 6 8.015625 6 15.921875 
Q 6 25.140625 12.171875 29.828125 
Q 18.359375 34.515625 30.609375 34.515625 
L 43.21875 34.515625 
L 43.21875 35.40625 
Q 43.21875 41.609375 39.140625 45 
Q 35.0625 48.390625 27.6875 48.390625 
Q 23 48.390625 18.546875 47.265625 
Q 14.109375 46.140625 10.015625 43.890625 
L 10.015625 52.203125 
Q 14.9375 54.109375 19.578125 55.046875 
Q 24.21875 56 28.609375 56 
Q 40.484375 56 46.34375 49.84375 
Q 52.203125 43.703125 52.203125 31.203125 
z
" id="DejaVuSans-61"/>
     </defs>
     <g transform="translate(240.45625 73.952812)scale(0.1 -0.1)">
      <use xlink:href="#DejaVuSans-4d"/>
      <use x="86.279297" xlink:href="#DejaVuSans-50"/>
      <use x="146.582031" xlink:href="#DejaVuSans-56"/>
      <use x="214.990234" xlink:href="#DejaVuSans-20"/>
      <use x="246.777344" xlink:href="#DejaVuSans-4c"/>
      <use x="302.490234" xlink:href="#DejaVuSans-61"/>
      <use x="363.769531" xlink:href="#DejaVuSans-6e"/>
      <use x="427.148438" xlink:href="#DejaVuSans-64"/>
      <use x="490.625" xlink:href="#DejaVuSans-61"/>
      <use x="551.904297" xlink:href="#DejaVuSans-75"/>
     </g>
    </g>
    <g id="line2d_89">
     <path d="M 212.45625 85.130937 
L 232.45625 85.130937 
" style="fill:none;stroke:#808080;stroke-linecap:square;stroke-width:2;"/>
    </g>
    <g id="line2d_90"/>
    <g id="text_18">
     <!-- MPV Landau Limit -->
     <g transform="translate(240.45625 88.630937)scale(0.1 -0.1)">
      <use xlink:href="#DejaVuSans-4d"/>
      <use x="86.279297" xlink:href="#DejaVuSans-50"/>
      <use x="146.582031" xlink:href="#DejaVuSans-56"/>
      <use x="214.990234" xlink:href="#DejaVuSans-20"/>
      <use x="246.777344" xlink:href="#DejaVuSans-4c"/>
      <use x="302.490234" xlink:href="#DejaVuSans-61"/>
      <use x="363.769531" xlink:href="#DejaVuSans-6e"/>
      <use x="427.148438" xlink:href="#DejaVuSans-64"/>
      <use x="490.625" xlink:href="#DejaVuSans-61"/>
      <use x="551.904297" xlink:href="#DejaVuSans-75"/>
      <use x="615.283203" xlink:href="#DejaVuSans-20"/>
      <use x="647.070312" xlink:href="#DejaVuSans-4c"/>
      <use x="702.783203" xlink:href="#DejaVuSans-69"/>
      <use x="730.566406" xlink:href="#DejaVuSans-6d"/>
      <use x="827.978516" xlink:href="#DejaVuSans-69"/>
      <use x="855.761719" xlink:href="#DejaVuSans-74"/>
     </g>
    </g>
    <g id="line2d_91">
     <path d="M 212.45625 99.809062 
L 232.45625 99.809062 
" style="fill:none;stroke:#1f77b4;stroke-linecap:square;stroke-width:1.5;"/>
    </g>
    <g id="line2d_92">
     <g>
      <use style="fill:#1f77b4;stroke:#1f77b4;" x="222.45625" xlink:href="#mc49cd9cf77" y="99.809062"/>
     </g>
    </g>
    <g id="text_19">
     <!-- MPV of MIP = 11.33 keV -->
     <defs>
      <path d="M 37.109375 75.984375 
L 37.109375 68.5 
L 28.515625 68.5 
Q 23.6875 68.5 21.796875 66.546875 
Q 19.921875 64.59375 19.921875 59.515625 
L 19.921875 54.6875 
L 34.71875 54.6875 
L 34.71875 47.703125 
L 19.921875 47.703125 
L 19.921875 0 
L 10.890625 0 
L 10.890625 47.703125 
L 2.296875 47.703125 
L 2.296875 54.6875 
L 10.890625 54.6875 
L 10.890625 58.5 
Q 10.890625 67.625 15.140625 71.796875 
Q 19.390625 75.984375 28.609375 75.984375 
z
" id="DejaVuSans-66"/>
      <path d="M 9.8125 72.90625 
L 19.671875 72.90625 
L 19.671875 0 
L 9.8125 0 
z
" id="DejaVuSans-49"/>
      <path d="M 10.6875 12.40625 
L 21 12.40625 
L 21 0 
L 10.6875 0 
z
" id="DejaVuSans-2e"/>
     </defs>
     <g transform="translate(240.45625 103.309062)scale(0.1 -0.1)">
      <use xlink:href="#DejaVuSans-4d"/>
      <use x="86.279297" xlink:href="#DejaVuSans-50"/>
      <use x="146.582031" xlink:href="#DejaVuSans-56"/>
      <use x="214.990234" xlink:href="#DejaVuSans-20"/>
      <use x="246.777344" xlink:href="#DejaVuSans-6f"/>
      <use x="307.958984" xlink:href="#DejaVuSans-66"/>
      <use x="343.164062" xlink:href="#DejaVuSans-20"/>
      <use x="374.951172" xlink:href="#DejaVuSans-4d"/>
      <use x="461.230469" xlink:href="#DejaVuSans-49"/>
      <use x="490.722656" xlink:href="#DejaVuSans-50"/>
      <use x="551.025391" xlink:href="#DejaVuSans-20"/>
      <use x="582.8125" xlink:href="#DejaVuSans-3d"/>
      <use x="666.601562" xlink:href="#DejaVuSans-20"/>
      <use x="698.388672" xlink:href="#DejaVuSans-31"/>
      <use x="762.011719" xlink:href="#DejaVuSans-31"/>
      <use x="825.634766" xlink:href="#DejaVuSans-2e"/>
      <use x="857.421875" xlink:href="#DejaVuSans-33"/>
      <use x="921.044922" xlink:href="#DejaVuSans-33"/>
      <use x="984.667969" xlink:href="#DejaVuSans-20"/>
      <use x="1016.455078" xlink:href="#DejaVuSans-6b"/>
      <use x="1074.318359" xlink:href="#DejaVuSans-65"/>
      <use x="1135.841797" xlink:href="#DejaVuSans-56"/>
     </g>
    </g>
   </g>
  </g>
  <g id="axes_2">
   <g id="matplotlib.axis_3">
    <g id="ytick_8">
     <g id="line2d_93">
      <defs>
       <path d="M 0 0 
L 3.5 0 
" id="m4a37114ffd" style="stroke:#000000;stroke-width:0.8;"/>
      </defs>
      <g>
       <use style="stroke:#000000;stroke-width:0.8;" x="517.21" xlink:href="#m4a37114ffd" y="329.965303"/>
      </g>
     </g>
     <g id="text_20">
      <!-- 4 -->
      <g transform="translate(524.21 336.044053)scale(0.16 -0.16)">
       <use xlink:href="#DejaVuSans-34"/>
      </g>
     </g>
    </g>
    <g id="ytick_9">
     <g id="line2d_94">
      <g>
       <use style="stroke:#000000;stroke-width:0.8;" x="517.21" xlink:href="#m4a37114ffd" y="255.460526"/>
      </g>
     </g>
     <g id="text_21">
      <!-- 6 -->
      <g transform="translate(524.21 261.539276)scale(0.16 -0.16)">
       <use xlink:href="#DejaVuSans-36"/>
      </g>
     </g>
    </g>
    <g id="ytick_10">
     <g id="line2d_95">
      <g>
       <use style="stroke:#000000;stroke-width:0.8;" x="517.21" xlink:href="#m4a37114ffd" y="180.955749"/>
      </g>
     </g>
     <g id="text_22">
      <!-- 8 -->
      <defs>
       <path d="M 31.78125 34.625 
Q 24.75 34.625 20.71875 30.859375 
Q 16.703125 27.09375 16.703125 20.515625 
Q 16.703125 13.921875 20.71875 10.15625 
Q 24.75 6.390625 31.78125 6.390625 
Q 38.8125 6.390625 42.859375 10.171875 
Q 46.921875 13.96875 46.921875 20.515625 
Q 46.921875 27.09375 42.890625 30.859375 
Q 38.875 34.625 31.78125 34.625 
z
M 21.921875 38.8125 
Q 15.578125 40.375 12.03125 44.71875 
Q 8.5 49.078125 8.5 55.328125 
Q 8.5 64.0625 14.71875 69.140625 
Q 20.953125 74.21875 31.78125 74.21875 
Q 42.671875 74.21875 48.875 69.140625 
Q 55.078125 64.0625 55.078125 55.328125 
Q 55.078125 49.078125 51.53125 44.71875 
Q 48 40.375 41.703125 38.8125 
Q 48.828125 37.15625 52.796875 32.3125 
Q 56.78125 27.484375 56.78125 20.515625 
Q 56.78125 9.90625 50.3125 4.234375 
Q 43.84375 -1.421875 31.78125 -1.421875 
Q 19.734375 -1.421875 13.25 4.234375 
Q 6.78125 9.90625 6.78125 20.515625 
Q 6.78125 27.484375 10.78125 32.3125 
Q 14.796875 37.15625 21.921875 38.8125 
z
M 18.3125 54.390625 
Q 18.3125 48.734375 21.84375 45.5625 
Q 25.390625 42.390625 31.78125 42.390625 
Q 38.140625 42.390625 41.71875 45.5625 
Q 45.3125 48.734375 45.3125 54.390625 
Q 45.3125 60.0625 41.71875 63.234375 
Q 38.140625 66.40625 31.78125 66.40625 
Q 25.390625 66.40625 21.84375 63.234375 
Q 18.3125 60.0625 18.3125 54.390625 
z
" id="DejaVuSans-38"/>
      </defs>
      <g transform="translate(524.21 187.034499)scale(0.16 -0.16)">
       <use xlink:href="#DejaVuSans-38"/>
      </g>
     </g>
    </g>
    <g id="ytick_11">
     <g id="line2d_96">
      <g>
       <use style="stroke:#000000;stroke-width:0.8;" x="517.21" xlink:href="#m4a37114ffd" y="106.450971"/>
      </g>
     </g>
     <g id="text_23">
      <!-- 10 -->
      <g transform="translate(524.21 112.529721)scale(0.16 -0.16)">
       <use xlink:href="#DejaVuSans-31"/>
       <use x="63.623047" xlink:href="#DejaVuSans-30"/>
      </g>
     </g>
    </g>
    <g id="ytick_12">
     <g id="line2d_97">
      <g>
       <use style="stroke:#000000;stroke-width:0.8;" x="517.21" xlink:href="#m4a37114ffd" y="31.946194"/>
      </g>
     </g>
     <g id="text_24">
      <!-- 12 -->
      <g transform="translate(524.21 38.024944)scale(0.16 -0.16)">
       <use xlink:href="#DejaVuSans-31"/>
       <use x="63.623047" xlink:href="#DejaVuSans-32"/>
      </g>
     </g>
    </g>
    <g id="text_25">
     <!-- Signal in 1000 e/h pairs -->
     <defs>
      <path d="M 25.390625 72.90625 
L 33.6875 72.90625 
L 8.296875 -9.28125 
L 0 -9.28125 
z
" id="DejaVuSans-2f"/>
     </defs>
     <g transform="translate(560.7275 289.153)rotate(-90)scale(0.16 -0.16)">
      <use xlink:href="#DejaVuSans-53"/>
      <use x="63.476562" xlink:href="#DejaVuSans-69"/>
      <use x="91.259766" xlink:href="#DejaVuSans-67"/>
      <use x="154.736328" xlink:href="#DejaVuSans-6e"/>
      <use x="218.115234" xlink:href="#DejaVuSans-61"/>
      <use x="279.394531" xlink:href="#DejaVuSans-6c"/>
      <use x="307.177734" xlink:href="#DejaVuSans-20"/>
      <use x="338.964844" xlink:href="#DejaVuSans-69"/>
      <use x="366.748047" xlink:href="#DejaVuSans-6e"/>
      <use x="430.126953" xlink:href="#DejaVuSans-20"/>
      <use x="461.914062" xlink:href="#DejaVuSans-31"/>
      <use x="525.537109" xlink:href="#DejaVuSans-30"/>
      <use x="589.160156" xlink:href="#DejaVuSans-30"/>
      <use x="652.783203" xlink:href="#DejaVuSans-30"/>
      <use x="716.40625" xlink:href="#DejaVuSans-20"/>
      <use x="748.193359" xlink:href="#DejaVuSans-65"/>
      <use x="809.716797" xlink:href="#DejaVuSans-2f"/>
      <use x="843.408203" xlink:href="#DejaVuSans-68"/>
      <use x="906.787109" xlink:href="#DejaVuSans-20"/>
      <use x="938.574219" xlink:href="#DejaVuSans-70"/>
      <use x="1002.050781" xlink:href="#DejaVuSans-61"/>
      <use x="1063.330078" xlink:href="#DejaVuSans-69"/>
      <use x="1091.113281" xlink:href="#DejaVuSans-72"/>
      <use x="1132.226562" xlink:href="#DejaVuSans-73"/>
     </g>
    </g>
   </g>
   <g id="line2d_98">
    <path clip-path="url(#pcf6c55c31b)" d="M 79.627273 189.847848 
L 82.130248 204.802373 
L 84.633224 218.544233 
L 87.1362 231.16881 
L 89.639176 242.763867 
L 92.142151 253.410158 
L 94.645127 263.18199 
L 97.148103 272.14774 
L 99.651078 280.370332 
L 102.154054 287.907675 
L 104.65703 294.813066 
L 107.160005 301.135563 
L 109.662981 306.920327 
L 112.165957 312.208933 
L 114.668933 317.039665 
L 117.171908 321.447779 
L 119.674884 325.465744 
L 122.17786 329.123475 
L 125.097998 332.972179 
L 127.600974 335.941078 
L 128.018136 337.84851 
L 130.938275 340.933383 
L 133.858413 343.695334 
L 136.778551 346.163086 
L 139.69869 348.362895 
L 143.035991 350.57956 
L 146.373291 352.51009 
L 149.710592 354.18386 
L 153.047893 355.627383 
L 156.802357 357.005831 
L 160.55682 358.153651 
L 164.728447 359.191531 
L 169.317235 360.082426 
L 173.906024 360.747786 
L 178.911976 361.255517 
L 184.33509 361.590618 
L 190.592529 361.750526 
L 197.684293 361.69986 
L 206.027546 361.403399 
L 216.039449 360.812144 
L 229.388652 359.783404 
L 257.338548 357.334712 
L 281.533979 355.334549 
L 301.140622 353.939997 
L 319.91294 352.825532 
L 339.102421 351.907662 
L 359.543389 351.157462 
L 381.235845 350.586022 
L 405.431277 350.173528 
L 434.215497 349.914919 
L 473.011621 349.809639 
L 496.372727 349.804441 
L 496.372727 349.804441 
" style="fill:none;stroke:#0000ff;stroke-linecap:square;stroke-width:2;"/>
   </g>
   <g id="patch_8">
    <path d="M 58.79 375.496 
L 58.79 13.32 
" style="fill:none;stroke:#000000;stroke-linecap:square;stroke-linejoin:miter;stroke-width:0.8;"/>
   </g>
   <g id="patch_9">
    <path d="M 517.21 375.496 
L 517.21 13.32 
" style="fill:none;stroke:#000000;stroke-linecap:square;stroke-linejoin:miter;stroke-width:0.8;"/>
   </g>
   <g id="patch_10">
    <path d="M 58.79 375.496 
L 517.21 375.496 
" style="fill:none;stroke:#000000;stroke-linecap:square;stroke-linejoin:miter;stroke-width:0.8;"/>
   </g>
   <g id="patch_11">
    <path d="M 58.79 13.32 
L 517.21 13.32 
" style="fill:none;stroke:#000000;stroke-linecap:square;stroke-linejoin:miter;stroke-width:0.8;"/>
   </g>
  </g>
 </g>
 <defs>
  <clipPath id="pcf6c55c31b">
   <rect height="362.176" width="458.42" x="58.79" y="13.32"/>
  </clipPath>
 </defs>
</svg>
